<mxfile host="app.diagrams.net" modified="2020-05-28T16:55:39.407Z" agent="5.0 (X11)" etag="tnbrwdgsersDVjh6ykYN" version="13.1.5" type="github">
  <diagram id="3fwZqk1B3qlaLG7Jyez4" name="Page-1">
    <mxGraphModel dx="1041" dy="607" grid="1" gridSize="10" guides="1" tooltips="1" connect="1" arrows="1" fold="1" page="1" pageScale="1" pageWidth="850" pageHeight="1100" math="0" shadow="0">
      <root>
        <mxCell id="0" />
        <mxCell id="1" parent="0" />
        <mxCell id="C3PkVt3QLCCE88dbXSQk-14" style="edgeStyle=orthogonalEdgeStyle;rounded=0;orthogonalLoop=1;jettySize=auto;html=1;exitX=0.5;exitY=1;exitDx=0;exitDy=0;entryX=0.5;entryY=0;entryDx=0;entryDy=0;" edge="1" parent="1" source="nGucEPzBDYhibF8OUj3G-1" target="nGucEPzBDYhibF8OUj3G-5">
          <mxGeometry relative="1" as="geometry" />
        </mxCell>
        <mxCell id="nGucEPzBDYhibF8OUj3G-1" value="&lt;div&gt;INICIO&lt;/div&gt;&lt;div&gt;API&lt;/div&gt;" style="ellipse;whiteSpace=wrap;html=1;strokeColor=#B3FF66;shadow=0;" parent="1" vertex="1">
          <mxGeometry x="51" y="10" width="120" height="80" as="geometry" />
        </mxCell>
        <mxCell id="nGucEPzBDYhibF8OUj3G-10" style="edgeStyle=orthogonalEdgeStyle;rounded=0;orthogonalLoop=1;jettySize=auto;html=1;entryX=0;entryY=0.5;entryDx=0;entryDy=0;" parent="1" source="nGucEPzBDYhibF8OUj3G-5" target="nGucEPzBDYhibF8OUj3G-9" edge="1">
          <mxGeometry relative="1" as="geometry" />
        </mxCell>
        <mxCell id="nGucEPzBDYhibF8OUj3G-20" style="edgeStyle=orthogonalEdgeStyle;rounded=0;orthogonalLoop=1;jettySize=auto;html=1;exitX=0.5;exitY=1;exitDx=0;exitDy=0;entryX=0.5;entryY=0;entryDx=0;entryDy=0;" parent="1" source="nGucEPzBDYhibF8OUj3G-5" target="nGucEPzBDYhibF8OUj3G-18" edge="1">
          <mxGeometry relative="1" as="geometry" />
        </mxCell>
        <mxCell id="nGucEPzBDYhibF8OUj3G-5" value="Es una ruta absoluta?" style="rhombus;whiteSpace=wrap;html=1;shadow=0;strokeColor=#B3FF66;" parent="1" vertex="1">
          <mxGeometry x="60.75" y="150" width="100" height="100" as="geometry" />
        </mxCell>
        <mxCell id="nGucEPzBDYhibF8OUj3G-9" value="Convertir en absoluta" style="rounded=0;whiteSpace=wrap;html=1;shadow=0;strokeColor=#B3FF66;" parent="1" vertex="1">
          <mxGeometry x="273.5" y="170" width="120" height="60" as="geometry" />
        </mxCell>
        <mxCell id="nGucEPzBDYhibF8OUj3G-11" value="NO" style="text;html=1;resizable=0;autosize=1;align=center;verticalAlign=middle;points=[];fillColor=none;strokeColor=none;rounded=0;shadow=1;" parent="1" vertex="1">
          <mxGeometry x="203.5" y="180" width="30" height="20" as="geometry" />
        </mxCell>
        <mxCell id="nGucEPzBDYhibF8OUj3G-16" style="edgeStyle=orthogonalEdgeStyle;rounded=0;orthogonalLoop=1;jettySize=auto;html=1;exitX=0.5;exitY=0;exitDx=0;exitDy=0;" parent="1" source="nGucEPzBDYhibF8OUj3G-9" edge="1">
          <mxGeometry relative="1" as="geometry">
            <mxPoint x="113.5" y="120" as="targetPoint" />
            <mxPoint x="333.5" y="160" as="sourcePoint" />
            <Array as="points">
              <mxPoint x="333.5" y="120" />
            </Array>
          </mxGeometry>
        </mxCell>
        <mxCell id="nGucEPzBDYhibF8OUj3G-27" style="edgeStyle=orthogonalEdgeStyle;rounded=0;orthogonalLoop=1;jettySize=auto;html=1;entryX=0;entryY=0.5;entryDx=0;entryDy=0;" parent="1" source="nGucEPzBDYhibF8OUj3G-18" target="nGucEPzBDYhibF8OUj3G-21" edge="1">
          <mxGeometry relative="1" as="geometry" />
        </mxCell>
        <mxCell id="nGucEPzBDYhibF8OUj3G-32" style="edgeStyle=orthogonalEdgeStyle;rounded=0;orthogonalLoop=1;jettySize=auto;html=1;exitX=0.5;exitY=1;exitDx=0;exitDy=0;entryX=0.5;entryY=0;entryDx=0;entryDy=0;" parent="1" source="nGucEPzBDYhibF8OUj3G-18" target="nGucEPzBDYhibF8OUj3G-31" edge="1">
          <mxGeometry relative="1" as="geometry" />
        </mxCell>
        <mxCell id="nGucEPzBDYhibF8OUj3G-18" value="Es un archivo?" style="rhombus;whiteSpace=wrap;html=1;shadow=0;strokeColor=#B3FF66;fillColor=#FFFFFF;" parent="1" vertex="1">
          <mxGeometry x="51" y="385" width="119.5" height="90" as="geometry" />
        </mxCell>
        <mxCell id="nGucEPzBDYhibF8OUj3G-29" style="edgeStyle=orthogonalEdgeStyle;rounded=0;orthogonalLoop=1;jettySize=auto;html=1;exitX=0.5;exitY=0;exitDx=0;exitDy=0;entryX=0.5;entryY=1;entryDx=0;entryDy=0;" parent="1" source="nGucEPzBDYhibF8OUj3G-21" target="nGucEPzBDYhibF8OUj3G-26" edge="1">
          <mxGeometry relative="1" as="geometry" />
        </mxCell>
        <mxCell id="C3PkVt3QLCCE88dbXSQk-15" style="edgeStyle=orthogonalEdgeStyle;rounded=0;orthogonalLoop=1;jettySize=auto;html=1;exitX=1;exitY=0.5;exitDx=0;exitDy=0;entryX=0.5;entryY=0;entryDx=0;entryDy=0;" edge="1" parent="1" source="nGucEPzBDYhibF8OUj3G-21" target="C3PkVt3QLCCE88dbXSQk-19">
          <mxGeometry relative="1" as="geometry">
            <mxPoint x="460" y="1250" as="targetPoint" />
          </mxGeometry>
        </mxCell>
        <mxCell id="nGucEPzBDYhibF8OUj3G-21" value="Es un directorio?" style="rhombus;whiteSpace=wrap;html=1;shadow=0;strokeColor=#B3FF66;" parent="1" vertex="1">
          <mxGeometry x="273.5" y="390" width="130" height="80" as="geometry" />
        </mxCell>
        <mxCell id="nGucEPzBDYhibF8OUj3G-25" value="NO" style="text;html=1;align=center;verticalAlign=middle;resizable=0;points=[];autosize=1;" parent="1" vertex="1">
          <mxGeometry x="223.5" y="400" width="30" height="20" as="geometry" />
        </mxCell>
        <mxCell id="nGucEPzBDYhibF8OUj3G-30" style="edgeStyle=orthogonalEdgeStyle;rounded=0;orthogonalLoop=1;jettySize=auto;html=1;exitX=0;exitY=0.5;exitDx=0;exitDy=0;" parent="1" source="nGucEPzBDYhibF8OUj3G-26" edge="1">
          <mxGeometry relative="1" as="geometry">
            <mxPoint x="113.5" y="320" as="targetPoint" />
          </mxGeometry>
        </mxCell>
        <mxCell id="nGucEPzBDYhibF8OUj3G-26" value="entrar al directorio y buscar cada archivo" style="rounded=0;whiteSpace=wrap;html=1;shadow=0;strokeColor=#B3FF66;" parent="1" vertex="1">
          <mxGeometry x="278.5" y="290" width="120" height="60" as="geometry" />
        </mxCell>
        <mxCell id="nGucEPzBDYhibF8OUj3G-43" style="edgeStyle=orthogonalEdgeStyle;rounded=0;orthogonalLoop=1;jettySize=auto;html=1;exitX=0.5;exitY=1;exitDx=0;exitDy=0;" parent="1" source="nGucEPzBDYhibF8OUj3G-31" target="nGucEPzBDYhibF8OUj3G-42" edge="1">
          <mxGeometry relative="1" as="geometry" />
        </mxCell>
        <mxCell id="C3PkVt3QLCCE88dbXSQk-16" style="edgeStyle=orthogonalEdgeStyle;rounded=0;orthogonalLoop=1;jettySize=auto;html=1;exitX=1;exitY=0.5;exitDx=0;exitDy=0;entryX=0.5;entryY=0;entryDx=0;entryDy=0;" edge="1" parent="1" source="nGucEPzBDYhibF8OUj3G-31" target="C3PkVt3QLCCE88dbXSQk-19">
          <mxGeometry relative="1" as="geometry">
            <mxPoint x="460" y="1250" as="targetPoint" />
          </mxGeometry>
        </mxCell>
        <mxCell id="nGucEPzBDYhibF8OUj3G-31" value="Es un archivo .md?" style="rhombus;whiteSpace=wrap;html=1;shadow=0;strokeColor=#B3FF66;" parent="1" vertex="1">
          <mxGeometry x="70.75" y="520" width="80" height="80" as="geometry" />
        </mxCell>
        <mxCell id="nGucEPzBDYhibF8OUj3G-33" value="SI" style="text;html=1;align=center;verticalAlign=middle;resizable=0;points=[];autosize=1;" parent="1" vertex="1">
          <mxGeometry x="70.75" y="490" width="30" height="20" as="geometry" />
        </mxCell>
        <mxCell id="nGucEPzBDYhibF8OUj3G-34" value="SI" style="text;html=1;align=center;verticalAlign=middle;resizable=0;points=[];autosize=1;" parent="1" vertex="1">
          <mxGeometry x="353.5" y="365" width="30" height="20" as="geometry" />
        </mxCell>
        <mxCell id="nGucEPzBDYhibF8OUj3G-35" value="Si" style="text;html=1;align=center;verticalAlign=middle;resizable=0;points=[];autosize=1;" parent="1" vertex="1">
          <mxGeometry x="70.75" y="310" width="30" height="20" as="geometry" />
        </mxCell>
        <mxCell id="nGucEPzBDYhibF8OUj3G-38" value="NO" style="text;html=1;align=center;verticalAlign=middle;resizable=0;points=[];autosize=1;" parent="1" vertex="1">
          <mxGeometry x="420" y="400" width="30" height="20" as="geometry" />
        </mxCell>
        <mxCell id="nGucEPzBDYhibF8OUj3G-41" value="NO" style="text;html=1;align=center;verticalAlign=middle;resizable=0;points=[];autosize=1;" parent="1" vertex="1">
          <mxGeometry x="318.5" y="540" width="30" height="20" as="geometry" />
        </mxCell>
        <mxCell id="nGucEPzBDYhibF8OUj3G-46" style="edgeStyle=orthogonalEdgeStyle;rounded=0;orthogonalLoop=1;jettySize=auto;html=1;exitX=0.5;exitY=1;exitDx=0;exitDy=0;entryX=0.5;entryY=0;entryDx=0;entryDy=0;" parent="1" source="nGucEPzBDYhibF8OUj3G-42" target="nGucEPzBDYhibF8OUj3G-45" edge="1">
          <mxGeometry relative="1" as="geometry" />
        </mxCell>
        <mxCell id="nGucEPzBDYhibF8OUj3G-42" value="Entrar al archivo .md" style="rounded=0;whiteSpace=wrap;html=1;shadow=0;strokeColor=#B3FF66;fillColor=#FFFFFF;" parent="1" vertex="1">
          <mxGeometry x="50.5" y="630" width="120" height="60" as="geometry" />
        </mxCell>
        <mxCell id="nGucEPzBDYhibF8OUj3G-44" value="SI" style="text;html=1;align=center;verticalAlign=middle;resizable=0;points=[];autosize=1;" parent="1" vertex="1">
          <mxGeometry x="70.75" y="600" width="30" height="20" as="geometry" />
        </mxCell>
        <mxCell id="nGucEPzBDYhibF8OUj3G-48" style="edgeStyle=orthogonalEdgeStyle;rounded=0;orthogonalLoop=1;jettySize=auto;html=1;exitX=0.5;exitY=1;exitDx=0;exitDy=0;entryX=0.5;entryY=0;entryDx=0;entryDy=0;" parent="1" source="nGucEPzBDYhibF8OUj3G-45" target="nGucEPzBDYhibF8OUj3G-47" edge="1">
          <mxGeometry relative="1" as="geometry" />
        </mxCell>
        <mxCell id="nGucEPzBDYhibF8OUj3G-45" value="buscar link dentro de archivo" style="rounded=0;whiteSpace=wrap;html=1;shadow=0;strokeColor=#B3FF66;fillColor=#FFFFFF;" parent="1" vertex="1">
          <mxGeometry x="50.5" y="740" width="120" height="60" as="geometry" />
        </mxCell>
        <mxCell id="nGucEPzBDYhibF8OUj3G-54" style="edgeStyle=orthogonalEdgeStyle;rounded=0;orthogonalLoop=1;jettySize=auto;html=1;exitX=0.5;exitY=1;exitDx=0;exitDy=0;entryX=0.5;entryY=0;entryDx=0;entryDy=0;" parent="1" source="nGucEPzBDYhibF8OUj3G-47" target="nGucEPzBDYhibF8OUj3G-52" edge="1">
          <mxGeometry relative="1" as="geometry" />
        </mxCell>
        <mxCell id="C3PkVt3QLCCE88dbXSQk-17" style="edgeStyle=orthogonalEdgeStyle;rounded=0;orthogonalLoop=1;jettySize=auto;html=1;exitX=1;exitY=0.5;exitDx=0;exitDy=0;entryX=0.5;entryY=0;entryDx=0;entryDy=0;" edge="1" parent="1" source="nGucEPzBDYhibF8OUj3G-47" target="C3PkVt3QLCCE88dbXSQk-19">
          <mxGeometry relative="1" as="geometry">
            <mxPoint x="460" y="1250" as="targetPoint" />
          </mxGeometry>
        </mxCell>
        <mxCell id="nGucEPzBDYhibF8OUj3G-47" value="Existen links dentro del archivo?" style="rhombus;whiteSpace=wrap;html=1;shadow=0;strokeColor=#B3FF66;fillColor=#FFFFFF;" parent="1" vertex="1">
          <mxGeometry x="70.5" y="850" width="80" height="80" as="geometry" />
        </mxCell>
        <mxCell id="nGucEPzBDYhibF8OUj3G-50" value="NO" style="text;html=1;align=center;verticalAlign=middle;resizable=0;points=[];autosize=1;" parent="1" vertex="1">
          <mxGeometry x="325.5" y="875" width="30" height="20" as="geometry" />
        </mxCell>
        <mxCell id="nGucEPzBDYhibF8OUj3G-59" style="edgeStyle=orthogonalEdgeStyle;rounded=0;orthogonalLoop=1;jettySize=auto;html=1;exitX=0.5;exitY=1;exitDx=0;exitDy=0;entryX=0.5;entryY=0;entryDx=0;entryDy=0;" parent="1" source="nGucEPzBDYhibF8OUj3G-52" target="nGucEPzBDYhibF8OUj3G-58" edge="1">
          <mxGeometry relative="1" as="geometry" />
        </mxCell>
        <mxCell id="nGucEPzBDYhibF8OUj3G-52" value="guardar link dentro de un array" style="rounded=0;whiteSpace=wrap;html=1;shadow=0;strokeColor=#B3FF66;fillColor=#FFFFFF;" parent="1" vertex="1">
          <mxGeometry x="50.5" y="990" width="120" height="60" as="geometry" />
        </mxCell>
        <mxCell id="nGucEPzBDYhibF8OUj3G-57" value="SI" style="text;html=1;align=center;verticalAlign=middle;resizable=0;points=[];autosize=1;" parent="1" vertex="1">
          <mxGeometry x="75.5" y="950" width="30" height="20" as="geometry" />
        </mxCell>
        <mxCell id="C3PkVt3QLCCE88dbXSQk-27" style="edgeStyle=orthogonalEdgeStyle;rounded=0;orthogonalLoop=1;jettySize=auto;html=1;exitX=0.5;exitY=1;exitDx=0;exitDy=0;entryX=0.5;entryY=0;entryDx=0;entryDy=0;" edge="1" parent="1" source="nGucEPzBDYhibF8OUj3G-58" target="C3PkVt3QLCCE88dbXSQk-24">
          <mxGeometry relative="1" as="geometry" />
        </mxCell>
        <mxCell id="C3PkVt3QLCCE88dbXSQk-29" style="edgeStyle=orthogonalEdgeStyle;rounded=0;orthogonalLoop=1;jettySize=auto;html=1;exitX=1;exitY=0.5;exitDx=0;exitDy=0;" edge="1" parent="1" source="nGucEPzBDYhibF8OUj3G-58" target="C3PkVt3QLCCE88dbXSQk-28">
          <mxGeometry relative="1" as="geometry" />
        </mxCell>
        <mxCell id="nGucEPzBDYhibF8OUj3G-58" value="validate true" style="rounded=0;whiteSpace=wrap;html=1;shadow=0;strokeColor=#B3FF66;fillColor=#FFFFFF;" parent="1" vertex="1">
          <mxGeometry x="50.5" y="1100" width="120" height="60" as="geometry" />
        </mxCell>
        <mxCell id="C3PkVt3QLCCE88dbXSQk-5" value="NO" style="text;html=1;align=center;verticalAlign=middle;resizable=0;points=[];autosize=1;" vertex="1" parent="1">
          <mxGeometry x="208.5" y="1110" width="30" height="20" as="geometry" />
        </mxCell>
        <mxCell id="C3PkVt3QLCCE88dbXSQk-6" value="SI" style="text;html=1;align=center;verticalAlign=middle;resizable=0;points=[];autosize=1;" vertex="1" parent="1">
          <mxGeometry x="70.5" y="1181" width="30" height="20" as="geometry" />
        </mxCell>
        <mxCell id="C3PkVt3QLCCE88dbXSQk-19" value="FIN" style="ellipse;whiteSpace=wrap;html=1;shadow=0;strokeColor=#B3FF66;fillColor=#FFFFFF;" vertex="1" parent="1">
          <mxGeometry x="398.5" y="1300" width="120" height="80" as="geometry" />
        </mxCell>
        <mxCell id="C3PkVt3QLCCE88dbXSQk-22" style="edgeStyle=orthogonalEdgeStyle;rounded=0;orthogonalLoop=1;jettySize=auto;html=1;exitX=0.5;exitY=1;exitDx=0;exitDy=0;entryX=0.5;entryY=0;entryDx=0;entryDy=0;" edge="1" parent="1" source="C3PkVt3QLCCE88dbXSQk-20" target="C3PkVt3QLCCE88dbXSQk-21">
          <mxGeometry relative="1" as="geometry" />
        </mxCell>
        <mxCell id="C3PkVt3QLCCE88dbXSQk-20" value="&lt;div&gt;INICIO&lt;/div&gt;&lt;div&gt;CLI&lt;br&gt;&lt;/div&gt;" style="ellipse;whiteSpace=wrap;html=1;shadow=0;strokeColor=#B3FF66;fillColor=#FFFFFF;" vertex="1" parent="1">
          <mxGeometry x="720" y="10" width="120" height="80" as="geometry" />
        </mxCell>
        <mxCell id="C3PkVt3QLCCE88dbXSQk-33" style="edgeStyle=orthogonalEdgeStyle;rounded=0;orthogonalLoop=1;jettySize=auto;html=1;exitX=0;exitY=0.5;exitDx=0;exitDy=0;" edge="1" parent="1" source="C3PkVt3QLCCE88dbXSQk-21" target="C3PkVt3QLCCE88dbXSQk-30">
          <mxGeometry relative="1" as="geometry">
            <mxPoint x="640" y="230" as="targetPoint" />
          </mxGeometry>
        </mxCell>
        <mxCell id="C3PkVt3QLCCE88dbXSQk-37" style="edgeStyle=orthogonalEdgeStyle;rounded=0;orthogonalLoop=1;jettySize=auto;html=1;exitX=1;exitY=0.5;exitDx=0;exitDy=0;entryX=0.5;entryY=0;entryDx=0;entryDy=0;" edge="1" parent="1" source="C3PkVt3QLCCE88dbXSQk-21" target="C3PkVt3QLCCE88dbXSQk-36">
          <mxGeometry relative="1" as="geometry" />
        </mxCell>
        <mxCell id="C3PkVt3QLCCE88dbXSQk-39" style="edgeStyle=orthogonalEdgeStyle;rounded=0;orthogonalLoop=1;jettySize=auto;html=1;exitX=0;exitY=1;exitDx=0;exitDy=0;entryX=0.5;entryY=0;entryDx=0;entryDy=0;" edge="1" parent="1" source="C3PkVt3QLCCE88dbXSQk-21" target="C3PkVt3QLCCE88dbXSQk-34">
          <mxGeometry relative="1" as="geometry" />
        </mxCell>
        <mxCell id="C3PkVt3QLCCE88dbXSQk-40" style="edgeStyle=orthogonalEdgeStyle;rounded=0;orthogonalLoop=1;jettySize=auto;html=1;exitX=1;exitY=1;exitDx=0;exitDy=0;entryX=0.5;entryY=0;entryDx=0;entryDy=0;" edge="1" parent="1" source="C3PkVt3QLCCE88dbXSQk-21" target="C3PkVt3QLCCE88dbXSQk-35">
          <mxGeometry relative="1" as="geometry" />
        </mxCell>
        <mxCell id="C3PkVt3QLCCE88dbXSQk-21" value="options o default?" style="rhombus;whiteSpace=wrap;html=1;shadow=0;strokeColor=#B3FF66;fillColor=#FFFFFF;" vertex="1" parent="1">
          <mxGeometry x="740" y="180" width="80" height="80" as="geometry" />
        </mxCell>
        <mxCell id="C3PkVt3QLCCE88dbXSQk-24" value="&lt;pre&gt;&lt;span class=&quot;pl-c&quot;&gt;{ href, text, &lt;br&gt;file, status, &lt;br&gt;ok }&lt;/span&gt;&lt;/pre&gt;" style="ellipse;whiteSpace=wrap;html=1;rounded=1;shadow=1;glass=1;strokeColor=#B3FF66;fillColor=#FFFFFF;" vertex="1" parent="1">
          <mxGeometry x="51" y="1210" width="120" height="80" as="geometry" />
        </mxCell>
        <mxCell id="C3PkVt3QLCCE88dbXSQk-28" value="&lt;pre&gt;&lt;span class=&quot;pl-c&quot;&gt;{ href, text,&lt;br&gt;&amp;nbsp;file }&lt;/span&gt;&lt;/pre&gt;" style="ellipse;whiteSpace=wrap;html=1;rounded=1;shadow=1;glass=1;strokeColor=#B3FF66;fillColor=#FFFFFF;" vertex="1" parent="1">
          <mxGeometry x="253.5" y="1090" width="120" height="80" as="geometry" />
        </mxCell>
        <mxCell id="C3PkVt3QLCCE88dbXSQk-30" value="&lt;pre&gt;&lt;span class=&quot;pl-c&quot;&gt;{ href, text,&lt;br&gt;&amp;nbsp;file }&lt;/span&gt;&lt;/pre&gt;" style="ellipse;whiteSpace=wrap;html=1;rounded=1;shadow=1;glass=1;strokeColor=#B3FF66;fillColor=#FFFFFF;" vertex="1" parent="1">
          <mxGeometry x="530" y="320" width="120" height="80" as="geometry" />
        </mxCell>
        <mxCell id="C3PkVt3QLCCE88dbXSQk-32" value="default" style="text;html=1;align=center;verticalAlign=middle;resizable=0;points=[];autosize=1;" vertex="1" parent="1">
          <mxGeometry x="590" y="200" width="50" height="20" as="geometry" />
        </mxCell>
        <mxCell id="C3PkVt3QLCCE88dbXSQk-34" value="&lt;pre&gt;Total: 3&lt;br/&gt;Unique: 3&lt;/pre&gt;" style="ellipse;whiteSpace=wrap;html=1;rounded=1;shadow=1;glass=1;strokeColor=#B3FF66;fillColor=#FFFFFF;" vertex="1" parent="1">
          <mxGeometry x="670" y="320" width="120" height="80" as="geometry" />
        </mxCell>
        <mxCell id="C3PkVt3QLCCE88dbXSQk-35" value="&lt;pre&gt;&lt;span class=&quot;pl-c&quot;&gt;{ href, text, &lt;br&gt;file, status, &lt;br&gt;ok }&lt;/span&gt;&lt;/pre&gt;" style="ellipse;whiteSpace=wrap;html=1;rounded=1;shadow=1;glass=1;strokeColor=#B3FF66;fillColor=#FFFFFF;" vertex="1" parent="1">
          <mxGeometry x="810" y="320" width="120" height="80" as="geometry" />
        </mxCell>
        <mxCell id="C3PkVt3QLCCE88dbXSQk-36" value="&lt;pre&gt;Total: 3&lt;br/&gt;Unique: 3&lt;br/&gt;Broken: 1&lt;/pre&gt;" style="ellipse;whiteSpace=wrap;html=1;rounded=1;shadow=1;glass=1;strokeColor=#B3FF66;fillColor=#FFFFFF;" vertex="1" parent="1">
          <mxGeometry x="950" y="320" width="120" height="80" as="geometry" />
        </mxCell>
        <mxCell id="C3PkVt3QLCCE88dbXSQk-38" value="--stats --validate" style="text;html=1;align=center;verticalAlign=middle;resizable=0;points=[];autosize=1;" vertex="1" parent="1">
          <mxGeometry x="890" y="200" width="100" height="20" as="geometry" />
        </mxCell>
        <mxCell id="C3PkVt3QLCCE88dbXSQk-41" value="--validate" style="text;html=1;align=center;verticalAlign=middle;resizable=0;points=[];autosize=1;" vertex="1" parent="1">
          <mxGeometry x="840" y="269" width="60" height="20" as="geometry" />
        </mxCell>
        <mxCell id="C3PkVt3QLCCE88dbXSQk-42" value="--stats" style="text;html=1;align=center;verticalAlign=middle;resizable=0;points=[];autosize=1;" vertex="1" parent="1">
          <mxGeometry x="705" y="272" width="50" height="20" as="geometry" />
        </mxCell>
      </root>
    </mxGraphModel>
  </diagram>
</mxfile>
